<?xml version="1.0" encoding="UTF-8"?>
<svg xmlns="http://www.w3.org/2000/svg" onmouseup="{ if(window.parent.document.onmouseup) window.parent.document.onmouseup(arguments[0]);}" width="36" viewBox="0 0 36 36" id="S_BackAndroid_18_N_2x" height="36" data-name="S_BackAndroid_18_N@2x"><defs><style>
      .fill {
        fill: #707070;
      }

      
    </style></defs><path data-cppathid="10000" d="M35.5,16.08H7.5l9.94-9.94a.967.967,0,0,0,0-1.4l-.7-.72a1.027,1.027,0,0,0-1.42,0L2.48,16.88a1.027,1.027,0,0,0,0,1.42L15.26,31.98a1.027,1.027,0,0,0,1.42,0l.7-.7a1.027,1.027,0,0,0,0-1.42L7.52,19H35.5a.5.5,0,0,0,.5-.5V16.58A.5.5,0,0,0,35.5,16.08Z" class="fill"/></svg>